<svg width="20" height="20" viewBox="0 0 20 20" fill="none" xmlns="http://www.w3.org/2000/svg">
<path fill-rule="evenodd" clip-rule="evenodd" d="M9.5835 0C5.61839 0 2.396 3.125 2.396 6.875C2.396 12.525 9.5835 20 9.5835 20C9.5835 20 16.771 12.525 16.771 6.875C16.771 3.125 13.5486 0 9.5835 0ZM9.5835 18.1875C7.35537 15.65 3.59391 10.55 3.59391 6.875C3.59391 3.775 6.28923 1.25 9.5835 1.25C11.1887 1.25 12.7101 1.85 13.8481 2.95C14.9502 4.025 15.5731 5.4125 15.5731 6.875C15.5731 10.55 11.8116 15.65 9.5835 18.1875ZM11.9793 6.875C11.9793 8.2625 10.9132 9.375 9.5835 9.375C8.25381 9.375 7.18766 8.2625 7.18766 6.875C7.18766 5.4875 8.25381 4.375 9.5835 4.375C10.9132 4.375 11.9793 5.4875 11.9793 6.875Z" fill="black"/>
</svg>
