<svg width="20" height="20" viewBox="0 0 20 20" fill="none" xmlns="http://www.w3.org/2000/svg">
<path d="M9.1665 11.2499V1.66659L2.49984 11.2499H9.1665ZM7.49984 9.58325H5.6915L7.49984 6.98325V9.58325ZM17.4998 11.2499C17.4998 5.41658 12.0832 0.833252 10.4165 0.833252C10.4165 0.833252 11.2498 3.33325 11.2498 6.24992C11.2498 9.16658 10.4165 11.2499 10.4165 11.2499H17.4998ZM12.8165 4.36658C13.9998 5.63325 15.2165 7.46658 15.6582 9.58325H12.5915C12.7665 8.66658 12.9165 7.53325 12.9165 6.24992C12.9165 5.59158 12.8748 4.95825 12.8165 4.36658ZM18.3332 12.4999H1.6665C1.91455 13.7375 2.60477 14.8425 3.60817 15.6083C4.14984 15.3833 4.62484 15.0083 4.99984 14.5833C5.60817 15.2833 6.49984 15.8333 7.49984 15.8333C8.49984 15.8333 9.3915 15.2833 9.99984 14.5833C10.6082 15.2833 11.4998 15.8333 12.4998 15.8333C13.4998 15.8333 14.3832 15.2833 14.9998 14.5833C15.3748 15.0083 15.8498 15.3833 16.3915 15.6083C17.3665 14.8666 18.0748 13.7749 18.3332 12.4999ZM18.3332 19.1666V17.4999H17.4998C16.6332 17.4999 15.7665 17.2083 14.9998 16.6666C13.4748 17.7499 11.5248 17.7499 9.99984 16.6666C8.47484 17.7499 6.52484 17.7499 4.99984 16.6666C4.2415 17.2083 3.3665 17.4999 2.49984 17.4999H1.6665V19.1666H2.49984C3.35817 19.1666 4.20817 18.9583 4.99984 18.5416C6.57484 19.3749 8.42484 19.3749 9.99984 18.5416C11.5748 19.3749 13.4248 19.3749 14.9998 18.5416C15.7915 18.9583 16.6415 19.1666 17.4998 19.1666H18.3332Z" fill="black"/>
</svg>
