<svg width="24" height="24" viewBox="0 0 24 24" fill="none" xmlns="http://www.w3.org/2000/svg">
<path d="M12.0001 7.89989C11.1892 7.89989 10.3965 8.14035 9.7223 8.59087C9.04806 9.04138 8.52255 9.68171 8.21223 10.4309C7.90191 11.1801 7.82072 12.0044 7.97892 12.7998C8.13712 13.5951 8.5276 14.3256 9.101 14.899C9.67439 15.4724 10.4049 15.8629 11.2003 16.0211C11.9956 16.1793 12.82 16.0981 13.5691 15.7878C14.3183 15.4775 14.9586 14.952 15.4092 14.2777C15.8597 13.6035 16.1001 12.8108 16.1001 11.9999C16.1015 11.4611 15.9963 10.9274 15.7907 10.4293C15.5852 9.9313 15.2832 9.4788 14.9022 9.09781C14.5212 8.71683 14.0687 8.41488 13.5707 8.2093C13.0727 8.00372 12.5389 7.89857 12.0001 7.89989ZM12.0001 14.6699C11.4721 14.6699 10.9558 14.5133 10.5168 14.2199C10.0777 13.9265 9.73546 13.5095 9.53338 13.0217C9.33129 12.5338 9.27842 11.9969 9.38144 11.479C9.48446 10.9611 9.73876 10.4853 10.1122 10.1119C10.4856 9.73851 10.9613 9.48422 11.4792 9.3812C11.9972 9.27817 12.534 9.33105 13.0219 9.53313C13.5098 9.73522 13.9268 10.0774 14.2202 10.5165C14.5135 10.9556 14.6701 11.4718 14.6701 11.9999C14.6701 12.708 14.3888 13.3871 13.8881 13.8879C13.3874 14.3886 12.7083 14.6699 12.0001 14.6699ZM17.2301 7.72989C17.2301 7.92767 17.1715 8.12101 17.0616 8.28546C16.9517 8.44991 16.7955 8.57808 16.6128 8.65377C16.4301 8.72946 16.229 8.74926 16.035 8.71068C15.8411 8.67209 15.6629 8.57685 15.523 8.437C15.3832 8.29715 15.2879 8.11896 15.2494 7.92498C15.2108 7.731 15.2306 7.52994 15.3063 7.34721C15.3819 7.16448 15.5101 7.0083 15.6746 6.89842C15.839 6.78854 16.0324 6.72989 16.2301 6.72989C16.4954 6.72989 16.7497 6.83525 16.9372 7.02279C17.1248 7.21032 17.2301 7.46468 17.2301 7.72989ZM19.9401 8.72989C19.9692 7.48672 19.5055 6.28249 18.6501 5.37989C17.7524 4.51358 16.5476 4.03885 15.3001 4.05989C14.0001 3.99989 10.0001 3.99989 8.70014 4.05989C7.45734 4.03298 6.25391 4.49639 5.35014 5.34989C4.49477 6.25249 4.03105 7.45672 4.06014 8.69989C4.00014 9.99989 4.00014 13.9999 4.06014 15.2999C4.03105 16.5431 4.49477 17.7473 5.35014 18.6499C6.25391 19.5034 7.45734 19.9668 8.70014 19.9399C10.0201 20.0199 13.9801 20.0199 15.3001 19.9399C16.5433 19.969 17.7475 19.5053 18.6501 18.6499C19.5055 17.7473 19.9692 16.5431 19.9401 15.2999C20.0001 13.9999 20.0001 9.99989 19.9401 8.69989V8.72989ZM18.2401 16.7299C18.1044 17.0738 17.8994 17.3862 17.6379 17.6477C17.3765 17.9091 17.0641 18.1141 16.7201 18.2499C15.1677 18.5637 13.5807 18.6713 12.0001 18.5699C10.4229 18.6715 8.83914 18.5639 7.29014 18.2499C6.9462 18.1141 6.63381 17.9091 6.37235 17.6477C6.11088 17.3862 5.90591 17.0738 5.77014 16.7299C5.35014 15.6699 5.44014 13.1699 5.44014 12.0099C5.44014 10.8499 5.35014 8.33989 5.77014 7.28989C5.90208 6.94256 6.10559 6.62685 6.36745 6.36327C6.62931 6.09968 6.94368 5.89411 7.29014 5.75989C8.83914 5.44587 10.4229 5.33827 12.0001 5.43989C13.5807 5.33844 15.1677 5.44604 16.7201 5.75989C17.0641 5.89567 17.3765 6.10064 17.6379 6.3621C17.8994 6.62357 18.1044 6.93595 18.2401 7.27989C18.6601 8.33989 18.5601 10.8399 18.5601 11.9999C18.5601 13.1599 18.6601 15.6699 18.2401 16.7199V16.7299Z" fill="white"/>
</svg>
