<svg width="17" height="16" viewBox="0 0 17 16" fill="none" xmlns="http://www.w3.org/2000/svg">
<path fill-rule="evenodd" clip-rule="evenodd" d="M8.4998 2C8.49985 2 8.49989 2 8.49989 2.66667L8.49988 3.33333L8.44958 3.33341C8.41622 3.33348 8.36694 3.33363 8.3037 3.33392C8.1772 3.33452 7.9949 3.33571 7.77244 3.33809C7.32726 3.34285 6.72254 3.35237 6.08303 3.37137C5.44245 3.39041 4.77229 3.41881 4.19464 3.46094C3.60257 3.50413 3.16264 3.5584 2.94346 3.61613C2.74433 3.67333 2.56361 3.78169 2.41932 3.93044C2.27856 4.07555 2.17729 4.25413 2.12496 4.44917C1.92527 5.56491 1.82762 6.69654 1.83322 7.83004L1.83326 7.83752C1.82611 8.97566 1.92303 10.1121 2.12288 11.2325C2.18063 11.4176 2.28291 11.5859 2.42094 11.7225C2.56555 11.8656 2.74452 11.9691 2.94065 12.0231C3.15887 12.0811 3.60002 12.1357 4.19464 12.1791C4.77229 12.2212 5.44245 12.2496 6.08303 12.2686C6.72254 12.2876 7.32726 12.2972 7.77244 12.3019C7.9949 12.3043 8.1772 12.3055 8.3037 12.3061C8.36694 12.3064 8.41622 12.3065 8.44958 12.3066H8.55021C8.58356 12.3065 8.63284 12.3064 8.69609 12.3061C8.82259 12.3055 9.00489 12.3043 9.22734 12.3019C9.67252 12.2972 10.2772 12.2876 10.9168 12.2686C11.5573 12.2496 12.2275 12.2212 12.8051 12.1791C13.3972 12.1359 13.8371 12.0816 14.0563 12.0239C14.2555 11.9667 14.4362 11.8583 14.5805 11.7096C14.7212 11.5645 14.8225 11.3859 14.8748 11.1908C15.073 10.0836 15.1706 8.96062 15.1666 7.83573L15.1665 7.82915C15.1737 6.68705 15.0761 5.54672 14.8748 4.42251C14.8225 4.22747 14.7212 4.04889 14.5805 3.90378C14.4378 3.75672 14.2596 3.64915 14.0632 3.59145C13.8365 3.53813 13.395 3.48899 12.8093 3.44998C12.2305 3.41144 11.5594 3.38548 10.9185 3.36809C10.2785 3.35072 9.67338 3.34203 9.22796 3.33768C9.00538 3.3355 8.82296 3.33442 8.69636 3.33387L8.55034 3.3334L8.49988 3.33333L8.49989 2.66667C8.49989 2 8.49985 2 8.4998 2L8.55303 2.00007C8.58738 2.00014 8.63771 2.00028 8.70207 2.00055C8.83078 2.0011 9.01566 2.00221 9.24099 2.00441C9.6914 2.00881 10.3046 2.01761 10.9546 2.03525C11.6037 2.05285 12.2943 2.0794 12.8979 2.1196C13.4844 2.15865 14.0409 2.21345 14.3914 2.29903C14.3992 2.30094 14.407 2.30299 14.4147 2.30518C14.8414 2.42591 15.2288 2.65711 15.5375 2.97543C15.8463 3.29375 16.0656 3.68792 16.1733 4.11813L15.5266 4.28L16.1826 4.16166C16.4012 5.37347 16.5074 6.60288 16.4999 7.83422C16.5041 9.04715 16.3979 10.2579 16.1826 11.4516C16.18 11.4663 16.1769 11.4808 16.1733 11.4952C16.0656 11.9254 15.8463 12.3196 15.5375 12.6379C15.2288 12.9562 14.8414 13.1874 14.4147 13.3082L14.4055 13.3107C14.0497 13.4058 13.4883 13.4661 12.9021 13.5089C12.2973 13.553 11.6058 13.5821 10.9564 13.6014C10.3059 13.6207 9.69226 13.6303 9.24161 13.6352C9.01615 13.6376 8.83115 13.6388 8.70234 13.6394C8.63793 13.6397 8.58755 13.6398 8.55316 13.6399L8.50019 13.64L8.44663 13.6399C8.41224 13.6398 8.36185 13.6397 8.29744 13.6394C8.16863 13.6388 7.98364 13.6376 7.75818 13.6352C7.30752 13.6303 6.69391 13.6207 6.04342 13.6014C5.39401 13.5821 4.70249 13.553 4.09765 13.5089C3.51144 13.4661 2.95008 13.4058 2.59432 13.3107L2.59061 13.3097C2.17256 13.1953 1.79109 12.975 1.48303 12.6702C1.17498 12.3653 0.950765 11.9861 0.832054 11.5693C0.826028 11.5481 0.821053 11.5267 0.817147 11.505C0.598588 10.2933 0.492383 9.06408 0.499883 7.83289C0.494073 6.6109 0.60027 5.39096 0.817142 4.18835C0.819779 4.17373 0.822903 4.15921 0.82651 4.1448C0.934189 3.71459 1.15349 3.32042 1.46226 3.0021C1.77104 2.68378 2.15835 2.45257 2.58507 2.33185L2.59432 2.3293C2.95008 2.23415 3.51144 2.1739 4.09765 2.13114C4.70249 2.08702 5.39401 2.05793 6.04342 2.03863C6.69391 2.0193 7.30752 2.00965 7.75818 2.00483C7.98364 2.00242 8.16863 2.00121 8.29744 2.00061C8.36185 2.0003 8.41224 2.00015 8.44663 2.00008L8.4998 2Z" fill="white" fill-opacity="0.92"/>
<path fill-rule="evenodd" clip-rule="evenodd" d="M6.66495 5.07722C6.87016 4.95785 7.12336 4.95661 7.32973 5.07397L11.1631 7.25397C11.3714 7.37248 11.5002 7.59375 11.5002 7.83348C11.5002 8.07321 11.3714 8.29448 11.1631 8.41299L7.32973 10.593C7.12336 10.7104 6.87016 10.7091 6.66495 10.5897C6.45974 10.4704 6.3335 10.2509 6.3335 10.0135V5.65348C6.3335 5.41608 6.45974 5.19659 6.66495 5.07722ZM7.66683 6.79955V8.86742L9.48492 7.83348L7.66683 6.79955Z" fill="white" fill-opacity="0.92"/>
</svg>
