<svg width="24" height="24" viewBox="0 0 24 24" fill="none" xmlns="http://www.w3.org/2000/svg">
<path d="M5.53202 5.207C8.30352 5.069 10.459 5 11.999 5C13.539 5 15.6955 5.069 18.4685 5.2075C19.1942 5.24372 19.882 5.54203 20.4043 6.04706C20.9266 6.55208 21.2479 7.22949 21.3085 7.9535C21.4355 9.4705 21.499 10.8065 21.499 11.962C21.499 13.1315 21.434 14.486 21.304 16.026C21.2437 16.7417 20.9285 17.412 20.4159 17.9151C19.9033 18.4181 19.2272 18.7206 18.5105 18.7675C16.14 18.9225 13.9695 19 11.999 19C10.029 19 7.85902 18.9225 5.49002 18.7675C4.77356 18.7206 4.09766 18.4184 3.58507 17.9156C3.07249 17.4129 2.75722 16.7429 2.69652 16.0275C2.56502 14.476 2.49902 13.1205 2.49902 11.962C2.49902 10.817 2.56352 9.4805 2.69152 7.952C2.75236 7.22817 3.07376 6.551 3.59605 6.04618C4.11834 5.54136 4.80605 5.24319 5.53152 5.207H5.53202Z" stroke="white" stroke-width="2" stroke-linejoin="round"/>
<path d="M10.5 9.80507V14.2031C10.5 14.2805 10.5209 14.3565 10.5607 14.423C10.6004 14.4895 10.6574 14.544 10.7256 14.5807C10.7938 14.6173 10.8707 14.6348 10.9481 14.6313C11.0254 14.6278 11.1004 14.6033 11.165 14.5606L14.4635 12.3806C14.5225 12.3417 14.5709 12.2889 14.6045 12.2268C14.6381 12.1647 14.6558 12.0952 14.6561 12.0246C14.6564 11.954 14.6393 11.8844 14.6062 11.822C14.5731 11.7597 14.5251 11.7064 14.4665 11.6671L11.1675 9.44907C11.103 9.40574 11.028 9.38075 10.9504 9.37678C10.8728 9.37281 10.7956 9.39 10.7271 9.42652C10.6585 9.46303 10.6012 9.5175 10.5612 9.58409C10.5212 9.65068 10.5 9.72689 10.5 9.80456V9.80507Z" stroke="white" stroke-width="1.7145" stroke-linejoin="round"/>
</svg>
