<svg width="24" height="24" viewBox="0 0 24 24" fill="none" xmlns="http://www.w3.org/2000/svg">
<path d="M5.53202 5.207C8.30352 5.069 10.459 5 11.999 5C13.539 5 15.6955 5.069 18.4685 5.2075C19.1942 5.24372 19.882 5.54203 20.4043 6.04706C20.9266 6.55208 21.2479 7.22949 21.3085 7.9535C21.4355 9.4705 21.499 10.8065 21.499 11.962C21.499 13.1315 21.434 14.486 21.304 16.026C21.2437 16.7417 20.9285 17.412 20.4159 17.9151C19.9033 18.4181 19.2272 18.7206 18.5105 18.7675C16.14 18.9225 13.9695 19 11.999 19C10.029 19 7.85902 18.9225 5.49002 18.7675C4.77356 18.7206 4.09766 18.4184 3.58507 17.9156C3.07249 17.4129 2.75722 16.7429 2.69652 16.0275C2.56502 14.476 2.49902 13.1205 2.49902 11.962C2.49902 10.817 2.56352 9.4805 2.69152 7.952C2.75236 7.22817 3.07376 6.551 3.59605 6.04618C4.11834 5.54136 4.80605 5.24319 5.53152 5.207H5.53202Z" stroke="#2263DD" stroke-width="2" stroke-linejoin="round"/>
<path d="M10.5 9.80482V14.2028C10.5 14.2803 10.5209 14.3563 10.5607 14.4228C10.6004 14.4893 10.6574 14.5437 10.7256 14.5804C10.7938 14.6171 10.8707 14.6346 10.9481 14.6311C11.0254 14.6275 11.1004 14.6031 11.165 14.5603L14.4635 12.3803C14.5225 12.3415 14.5709 12.2886 14.6045 12.2265C14.6381 12.1644 14.6558 12.095 14.6561 12.0244C14.6564 11.9538 14.6393 11.8842 14.6062 11.8218C14.5731 11.7594 14.5251 11.7062 14.4665 11.6668L11.1675 9.44882C11.103 9.40549 11.028 9.38051 10.9504 9.37654C10.8728 9.37257 10.7956 9.38976 10.7271 9.42627C10.6585 9.46279 10.6012 9.51725 10.5612 9.58384C10.5212 9.65043 10.5 9.72664 10.5 9.80432V9.80482Z" stroke="#2263DD" stroke-width="1.7145" stroke-linejoin="round"/>
</svg>
